<svg width="24" height="24" viewBox="0 0 24 24" fill="none" xmlns="http://www.w3.org/2000/svg">
<path fill-rule="evenodd" clip-rule="evenodd" d="M15.0005 2.25C15.4147 2.25 15.7505 2.58579 15.7505 3V4C15.7505 4.9665 14.967 5.75 14.0005 5.75H13.0005C12.8624 5.75 12.7505 5.86193 12.7505 6V7H13.1721C15.7112 7 16.9807 7 17.9568 7.61367C18.2038 7.76898 18.4331 7.95085 18.6405 8.15603C19.4603 8.96679 19.7493 10.203 20.3272 12.6753L21.3496 17.0491C21.7091 18.5866 20.7537 20.1243 19.216 20.483C17.9193 20.7856 16.5855 20.1527 15.9998 18.9569L15.8792 18.7106C15.3414 17.6127 14.2255 16.9167 13.003 16.9167H10.998C9.7755 16.9167 8.6596 17.6127 8.12184 18.7106L8.00121 18.9569C7.41551 20.1527 6.08168 20.7856 4.78499 20.483C3.24734 20.1243 2.29194 18.5866 2.65136 17.0491L3.6738 12.6753C4.25175 10.203 4.54073 8.96679 5.36047 8.15603C5.56793 7.95085 5.79722 7.76898 6.04424 7.61367C7.02032 7 8.28983 7 10.8288 7H11.2505V6C11.2505 5.0335 12.034 4.25 13.0005 4.25H14.0005C14.1386 4.25 14.2505 4.13807 14.2505 4V3C14.2505 2.58579 14.5863 2.25 15.0005 2.25ZM16.0005 11C16.0005 11.5523 15.5528 12 15.0005 12C14.4482 12 14.0005 11.5523 14.0005 11C14.0005 10.4477 14.4482 10 15.0005 10C15.5528 10 16.0005 10.4477 16.0005 11ZM8.50049 10.25C8.9147 10.25 9.25049 10.5858 9.25049 11V11.75H10.0005C10.4147 11.75 10.7505 12.0858 10.7505 12.5C10.7505 12.9142 10.4147 13.25 10.0005 13.25H9.25049V14C9.25049 14.4142 8.9147 14.75 8.50049 14.75C8.08627 14.75 7.75049 14.4142 7.75049 14V13.25H7.00049C6.58627 13.25 6.25049 12.9142 6.25049 12.5C6.25049 12.0858 6.58627 11.75 7.00049 11.75H7.75049V11C7.75049 10.5858 8.08627 10.25 8.50049 10.25ZM17.0005 14.5C17.5528 14.5 18.0005 14.0523 18.0005 13.5C18.0005 12.9477 17.5528 12.5 17.0005 12.5C16.4482 12.5 16.0005 12.9477 16.0005 13.5C16.0005 14.0523 16.4482 14.5 17.0005 14.5Z" fill="#3945B3"/>
</svg>
