<svg width="24" height="24" viewBox="0 0 24 24" fill="none" xmlns="http://www.w3.org/2000/svg">
  <!-- Camera icon styled to match existing Nubzuki Hunter top HUD icons -->
  <!-- Single-color fill (#3945B3) with cutouts using even-odd rule -->
  <path fill-rule="evenodd" clip-rule="evenodd"
    d="
      M6 7
      H18
      A3 3 0 0 1 21 10
      V17
      A3 3 0 0 1 18 20
      H6
      A3 3 0 0 1 3 17
      V10
      A3 3 0 0 1 6 7
      Z

      M12 11.2
      a3.8 3.8 0 1 0 0 7.6
      a3.8 3.8 0 1 0 0 -7.6
      Z

      M7.2 9.8
      a1 1 0 1 0 0 2
      a1 1 0 1 0 0 -2
      Z
    "
    fill="#3945B3"
  />
  <!-- Top bump -->
  <path
    d="
      M9 5.2
      H15
      A1.6 1.6 0 0 1 16.6 6.8
      V7.2
      H7.4
      V6.8
      A1.6 1.6 0 0 1 9 5.2
      Z
    "
    fill="#3945B3"
  />
  <!-- Inner lens (fills the cutout so the lens reads clearly on any background) -->
  <circle cx="12" cy="15" r="2.05" fill="#3945B3"/>
</svg>
